<svg width="auto" height="auto" viewBox="0 0 259 160" fill="none" xmlns="http://www.w3.org/2000/svg">
<path d="M23.2852 9.37325C23.2852 6.17 25.8819 3.57324 29.0852 3.57324H230.34C233.543 3.57324 236.14 6.16999 236.14 9.37324V149.379H23.2852V9.37325Z" fill="url(#paint0_linear_7384_567483)"/>
<g filter="url(#filter0_f_7384_567483)">
<path d="M2 157.892L3.1798 156.828H256.246L257.426 157.892H2Z" fill="black" fill-opacity="0.6"/>
</g>
<g filter="url(#filter1_f_7384_567483)">
<path d="M2 157.892L3.1798 156.828H256.246L257.426 157.892H2Z" fill="black" fill-opacity="0.5"/>
</g>
<g filter="url(#filter2_ii_7384_567483)">
<rect x="2" y="149.379" width="255.426" height="7.44993" rx="0.803695" fill="url(#paint1_linear_7384_567483)"/>
</g>
<rect x="28.9883" y="9.08594" width="201.45" height="134.497" rx="2.9" fill="url(#paint2_radial_7384_567483)"/>
<path fill-rule="evenodd" clip-rule="evenodd" d="M148.343 74.2988C148.343 74.2409 148.344 74.183 148.344 74.125C148.344 63.7179 139.907 55.2812 129.5 55.2812C119.093 55.2812 110.656 63.7179 110.656 74.125C110.656 74.183 110.657 74.2409 110.657 74.2988C115.197 75.0607 118.911 78.2573 120.41 82.5H138.59C140.089 78.2574 143.803 75.0607 148.343 74.2988Z" fill="url(#paint3_linear_7384_567483)"/>
<mask id="mask0_7384_567483" style="mask-type:alpha" maskUnits="userSpaceOnUse" x="110" y="55" width="39" height="28">
<path fill-rule="evenodd" clip-rule="evenodd" d="M148.343 74.2988C148.343 74.2409 148.344 74.183 148.344 74.125C148.344 63.7179 139.907 55.2812 129.5 55.2812C119.093 55.2812 110.656 63.7179 110.656 74.125C110.656 74.183 110.657 74.2409 110.657 74.2988C115.197 75.0607 118.911 78.2573 120.41 82.5H138.59C140.089 78.2574 143.803 75.0607 148.343 74.2988Z" fill="url(#paint4_linear_7384_567483)"/>
</mask>
<g mask="url(#mask0_7384_567483)">
<g filter="url(#filter3_dd_7384_567483)">
<path fill-rule="evenodd" clip-rule="evenodd" d="M108.562 99.25C101.624 99.25 96 93.6256 96 86.6875C96 79.7494 101.624 74.125 108.562 74.125C114.032 74.125 118.686 77.6208 120.41 82.5H138.59C140.314 77.6208 144.968 74.125 150.438 74.125C157.376 74.125 163 79.7494 163 86.6875C163 93.6256 157.376 99.25 150.438 99.25H108.562Z" fill="url(#paint5_linear_7384_567483)"/>
</g>
</g>
<g filter="url(#filter4_ddii_7384_567483)">
<path d="M134.003 40C123.925 40.0036 114.261 44.0087 107.135 51.1349C100.009 58.2611 96.0036 67.9253 96 78.0034C96.0036 88.0808 100.009 97.7443 107.135 104.869C114.262 111.995 123.926 115.998 134.003 116C144.08 115.998 153.744 111.994 160.869 104.869C167.994 97.7437 171.998 88.0801 172 78.0034C172.004 73.0123 171.023 68.0694 169.115 63.4574C167.207 58.8455 164.408 54.6549 160.879 51.1253C157.351 47.5958 153.16 44.7965 148.549 42.8875C143.937 40.9785 138.995 39.9973 134.003 40Z" fill="url(#paint6_linear_7384_567483)"/>
</g>
<path d="M134.003 101.644C134.668 101.644 135.327 101.492 135.941 101.195C136.555 100.898 137.114 100.463 137.584 99.9142C138.054 99.3656 138.427 98.7143 138.681 97.9976C138.936 97.2808 139.067 96.5126 139.067 95.7368C139.067 94.1694 138.534 92.666 137.584 91.557C136.635 90.448 135.347 89.8241 134.003 89.8223C132.659 89.8241 131.371 90.4478 130.42 91.5566C129.47 92.6654 128.935 94.1687 128.934 95.7368C128.944 97.3009 129.482 98.7973 130.431 99.9027C131.379 101.008 132.663 101.634 134.003 101.644Z" fill="#F9F9F8"/>
<path d="M134.007 87.2884C134.76 87.2816 135.485 86.928 136.051 86.2927C136.616 85.6573 136.983 84.7828 137.084 83.8295L139.04 63.8355C139.098 63.279 139.062 62.713 138.934 62.1761C138.805 61.6392 138.587 61.1442 138.295 60.7251C138.002 60.3059 137.643 59.9724 137.24 59.7476C136.837 59.5228 136.401 59.4119 135.962 59.4226H132.037C131.599 59.4216 131.167 59.539 130.768 59.7669C130.368 59.9949 130.012 60.3282 129.72 60.745C129.429 61.1619 129.21 61.6527 129.078 62.1854C128.946 62.718 128.904 63.2804 128.954 63.8355L130.909 83.8295C131.005 84.7906 131.373 85.6735 131.944 86.3109C132.515 86.9484 133.249 87.2962 134.007 87.2884Z" fill="#F9F9F8"/>
<defs>
<filter id="filter0_f_7384_567483" x="0.55" y="155.378" width="258.326" height="3.96445" filterUnits="userSpaceOnUse" color-interpolation-filters="sRGB">
<feFlood flood-opacity="0" result="BackgroundImageFix"/>
<feBlend mode="normal" in="SourceGraphic" in2="BackgroundImageFix" result="shape"/>
<feGaussianBlur stdDeviation="0.725" result="effect1_foregroundBlur_7384_567483"/>
</filter>
<filter id="filter1_f_7384_567483" x="0.55" y="155.378" width="258.326" height="3.96445" filterUnits="userSpaceOnUse" color-interpolation-filters="sRGB">
<feFlood flood-opacity="0" result="BackgroundImageFix"/>
<feBlend mode="normal" in="SourceGraphic" in2="BackgroundImageFix" result="shape"/>
<feGaussianBlur stdDeviation="0.725" result="effect1_foregroundBlur_7384_567483"/>
</filter>
<filter id="filter2_ii_7384_567483" x="2" y="149.078" width="255.426" height="7.95153" filterUnits="userSpaceOnUse" color-interpolation-filters="sRGB">
<feFlood flood-opacity="0" result="BackgroundImageFix"/>
<feBlend mode="normal" in="SourceGraphic" in2="BackgroundImageFix" result="shape"/>
<feColorMatrix in="SourceAlpha" type="matrix" values="0 0 0 0 0 0 0 0 0 0 0 0 0 0 0 0 0 0 127 0" result="hardAlpha"/>
<feOffset dy="-0.301386"/>
<feGaussianBlur stdDeviation="0.150693"/>
<feComposite in2="hardAlpha" operator="arithmetic" k2="-1" k3="1"/>
<feColorMatrix type="matrix" values="0 0 0 0 0 0 0 0 0 0 0 0 0 0 0 0 0 0 0.12 0"/>
<feBlend mode="normal" in2="shape" result="effect1_innerShadow_7384_567483"/>
<feColorMatrix in="SourceAlpha" type="matrix" values="0 0 0 0 0 0 0 0 0 0 0 0 0 0 0 0 0 0 127 0" result="hardAlpha"/>
<feOffset dy="0.301386"/>
<feGaussianBlur stdDeviation="0.100462"/>
<feComposite in2="hardAlpha" operator="arithmetic" k2="-1" k3="1"/>
<feColorMatrix type="matrix" values="0 0 0 0 1 0 0 0 0 1 0 0 0 0 1 0 0 0 0.4 0"/>
<feBlend mode="normal" in2="effect1_innerShadow_7384_567483" result="effect2_innerShadow_7384_567483"/>
</filter>
<filter id="filter3_dd_7384_567483" x="93.2083" y="69.9515" width="72.5833" height="30.7083" filterUnits="userSpaceOnUse" color-interpolation-filters="sRGB">
<feFlood flood-opacity="0" result="BackgroundImageFix"/>
<feColorMatrix in="SourceAlpha" type="matrix" values="0 0 0 0 0 0 0 0 0 0 0 0 0 0 0 0 0 0 127 0" result="hardAlpha"/>
<feOffset dy="-1.38188"/>
<feGaussianBlur stdDeviation="1.39583"/>
<feColorMatrix type="matrix" values="0 0 0 0 0 0 0 0 0 0 0 0 0 0 0 0 0 0 0.15 0"/>
<feBlend mode="normal" in2="BackgroundImageFix" result="effect1_dropShadow_7384_567483"/>
<feColorMatrix in="SourceAlpha" type="matrix" values="0 0 0 0 0 0 0 0 0 0 0 0 0 0 0 0 0 0 127 0" result="hardAlpha"/>
<feOffset dy="-0.293125"/>
<feGaussianBlur stdDeviation="0.209375"/>
<feColorMatrix type="matrix" values="0 0 0 0 0 0 0 0 0 0 0 0 0 0 0 0 0 0 0.15 0"/>
<feBlend mode="normal" in2="effect1_dropShadow_7384_567483" result="effect2_dropShadow_7384_567483"/>
<feBlend mode="normal" in="SourceGraphic" in2="effect2_dropShadow_7384_567483" result="shape"/>
</filter>
<filter id="filter4_ddii_7384_567483" x="93.4905" y="32.9934" width="87.2471" height="92.7843" filterUnits="userSpaceOnUse" color-interpolation-filters="sRGB">
<feFlood flood-opacity="0" result="BackgroundImageFix"/>
<feColorMatrix in="SourceAlpha" type="matrix" values="0 0 0 0 0 0 0 0 0 0 0 0 0 0 0 0 0 0 127 0" result="hardAlpha"/>
<feOffset dy="0.949354"/>
<feGaussianBlur stdDeviation="0.604684"/>
<feComposite in2="hardAlpha" operator="out"/>
<feColorMatrix type="matrix" values="0 0 0 0 0 0 0 0 0 0 0 0 0 0 0 0 0 0 0.25 0"/>
<feBlend mode="normal" in2="BackgroundImageFix" result="effect1_dropShadow_7384_567483"/>
<feColorMatrix in="SourceAlpha" type="matrix" values="0 0 0 0 0 0 0 0 0 0 0 0 0 0 0 0 0 0 127 0" result="hardAlpha"/>
<feOffset dx="3.11405" dy="4.15418"/>
<feGaussianBlur stdDeviation="2.81178"/>
<feComposite in2="hardAlpha" operator="out"/>
<feColorMatrix type="matrix" values="0 0 0 0 0 0 0 0 0 0 0 0 0 0 0 0 0 0 0.1 0"/>
<feBlend mode="normal" in2="effect1_dropShadow_7384_567483" result="effect2_dropShadow_7384_567483"/>
<feBlend mode="normal" in="SourceGraphic" in2="effect2_dropShadow_7384_567483" result="shape"/>
<feColorMatrix in="SourceAlpha" type="matrix" values="0 0 0 0 0 0 0 0 0 0 0 0 0 0 0 0 0 0 127 0" result="hardAlpha"/>
<feOffset dy="-7.00661"/>
<feGaussianBlur stdDeviation="3.89256"/>
<feComposite in2="hardAlpha" operator="arithmetic" k2="-1" k3="1"/>
<feColorMatrix type="matrix" values="0 0 0 0 0 0 0 0 0 0 0 0 0 0 0 0 0 0 0.15 0"/>
<feBlend mode="normal" in2="shape" result="effect3_innerShadow_7384_567483"/>
<feColorMatrix in="SourceAlpha" type="matrix" values="0 0 0 0 0 0 0 0 0 0 0 0 0 0 0 0 0 0 127 0" result="hardAlpha"/>
<feOffset dy="4.67107"/>
<feGaussianBlur stdDeviation="3.11405"/>
<feComposite in2="hardAlpha" operator="arithmetic" k2="-1" k3="1"/>
<feColorMatrix type="matrix" values="0 0 0 0 1 0 0 0 0 1 0 0 0 0 1 0 0 0 0.25 0"/>
<feBlend mode="normal" in2="effect3_innerShadow_7384_567483" result="effect4_innerShadow_7384_567483"/>
</filter>
<linearGradient id="paint0_linear_7384_567483" x1="129.713" y1="3.57324" x2="129.713" y2="149.379" gradientUnits="userSpaceOnUse">
<stop stop-color="#99A5B0"/>
<stop offset="1" stop-color="#8897A4"/>
</linearGradient>
<linearGradient id="paint1_linear_7384_567483" x1="257.426" y1="149.379" x2="2" y2="149.379" gradientUnits="userSpaceOnUse">
<stop stop-color="#A8B5BF"/>
<stop offset="0.0357143" stop-color="#BFCDD9"/>
<stop offset="0.0714286" stop-color="#B4C1CC"/>
<stop offset="0.500018" stop-color="#B4C1CC"/>
<stop offset="0.928571" stop-color="#B4C1CC"/>
<stop offset="0.964286" stop-color="#BFCDD9"/>
<stop offset="1" stop-color="#A8B5BF"/>
</linearGradient>
<radialGradient id="paint2_radial_7384_567483" cx="0" cy="0" r="1" gradientUnits="userSpaceOnUse" gradientTransform="translate(129.713 143.583) rotate(-90) scale(134.497 132.44)">
<stop stop-color="#E7E7E7"/>
<stop offset="1" stop-color="#E3E3E3"/>
</radialGradient>
<linearGradient id="paint3_linear_7384_567483" x1="121.125" y1="57.375" x2="131.594" y2="88.7812" gradientUnits="userSpaceOnUse">
<stop stop-color="#47A3F0"/>
<stop offset="1" stop-color="#0C59A4"/>
</linearGradient>
<linearGradient id="paint4_linear_7384_567483" x1="121.125" y1="55.2812" x2="129.5" y2="82.5" gradientUnits="userSpaceOnUse">
<stop stop-color="#CAD2D9"/>
<stop offset="1" stop-color="#A1AAB3"/>
</linearGradient>
<linearGradient id="paint5_linear_7384_567483" x1="114.611" y1="74.125" x2="118.896" y2="100.944" gradientUnits="userSpaceOnUse">
<stop stop-color="#ECF6FF"/>
<stop offset="1" stop-color="#A1AAB3"/>
</linearGradient>
<linearGradient id="paint6_linear_7384_567483" x1="162.411" y1="40" x2="82.5743" y2="63.7059" gradientUnits="userSpaceOnUse">
<stop stop-color="#0078D4"/>
<stop offset="1" stop-color="#5B41D3"/>
</linearGradient>
</defs>
</svg>
